<svg id="Capa_1" enable-background="new 0 0 512 512" height="512" viewBox="0 0 512 512" width="512" xmlns="http://www.w3.org/2000/svg"><g><path d="m150 235.271v-93.541l-75-37.5-75 37.5v93.541l75 37.5zm-120-75 45-22.5 45 22.5v56.459l-45 22.5-45-22.5z"/><path d="m136 496h240l-120-160zm60-30 60-80 60 80z"/><path d="m362 106v150h150v-150zm120 120h-90v-90h90z"/><path d="m255.483 46h.48c35.863.087 70.663 9.733 100.637 27.894l15.546-25.658c-34.641-20.988-74.791-32.135-116.109-32.236-.187 0-.368 0-.554 0-40.497 0-80.058 10.775-114.435 31.173l15.309 25.8c29.747-17.651 64.011-26.973 99.126-26.973z"/><path d="m358.524 406.528 15.842 25.477c46.713-29.046 81.114-73.936 96.867-126.4l-28.732-8.627c-13.651 45.459-43.474 84.365-83.977 109.55z"/><path d="m68.935 297.034-28.729 8.638c15.55 51.722 49.336 96.206 95.134 125.257l16.07-25.333c-39.711-25.19-69-63.744-82.475-108.562z"/><path d="m313.452 190.51-28.241 16.305c-4.154-3.548-8.957-6.357-14.211-8.221v-32.594h-30v32.568c-5.254 1.863-10.059 4.681-14.215 8.244l-28.237-16.303-15 25.98 28.227 16.297c-.494 2.653-.768 5.383-.775 8.177-.007 2.822.261 5.58.756 8.26l-28.208 16.286 15 25.98 28.241-16.305c4.154 3.548 8.957 6.357 14.211 8.221v32.595h30v-32.568c5.254-1.863 10.059-4.681 14.215-8.244l28.237 16.303 15-25.98-28.227-16.297c.494-2.653.768-5.383.775-8.177.007-2.822-.261-5.58-.756-8.26l28.208-16.286zm-57.379 65.49c-.012 0-.024 0-.037 0-8.311-.02-15.056-6.733-15.036-14.964.02-8.299 6.713-15.036 14.927-15.036h.037c8.311.02 15.056 6.733 15.036 14.964-.02 8.299-6.713 15.036-14.927 15.036z"/></g></svg>