<svg version="1.1" id="Capa_1" xmlns="http://www.w3.org/2000/svg" xmlnsXlink="http://www.w3.org/1999/xlink" x="0px" y="0px" viewBox="0 0 336.002 336.002"  xmlSpace="preserve">
  <g>
    <g>
      <path d="M274.021,0h-92h-97.12c-23.365,0.043-42.326,18.915-42.48,42.28v251.44c0.154,23.365,19.115,42.237,42.48,42.28h189.24
			c5.196,0.077,10.207-1.924,13.92-5.56c3.543-3.64,5.524-8.52,5.52-13.6V19.56C293.559,8.766,284.815,0.022,274.021,0z M190.101,16
			h47v75.04l-16.68-26.6c-0.676-1.126-1.618-2.069-2.744-2.744c-3.789-2.273-8.703-1.045-10.976,2.744l-16.6,26.48V16z
			 M58.621,42.28C58.687,27.793,70.414,16.066,84.901,16h89.2v81.6c-0.301,6.495,3.777,12.39,9.96,14.4
			c7.04,2.12,13.36-2.44,17.12-8.44l12.44-20l12.44,20c3.72,5.92,10.04,10.48,17.28,8.44c6.154-2.002,10.224-7.854,9.96-14.32V16.2
			h20.84c1.847,0.022,3.338,1.513,3.36,3.36v231.995c-1.11-0.188-2.234-0.281-3.36-0.275H84.901
			c-9.543-0.003-18.806,3.226-26.28,9.16V42.28z M277.501,285.8L93.061,286c-4.418,0-8,3.582-8,8s3.582,8,8,8l184.44-0.2v14.88
			c0.008,0.895-0.336,1.758-0.96,2.4c-0.642,0.623-1.505,0.968-2.4,0.96H84.901c-14.525,0-26.3-11.775-26.3-26.3
			s11.775-26.3,26.3-26.3h189.24c1.847,0.022,3.338,1.513,3.36,3.36V285.8z" />
    </g>
  </g>
  <g>
  </g>
  <g>
  </g>
  <g>
  </g>
  <g>
  </g>
  <g>
  </g>
  <g>
  </g>
  <g>
  </g>
  <g>
  </g>
  <g>
  </g>
  <g>
  </g>
  <g>
  </g>
  <g>
  </g>
  <g>
  </g>
  <g>
  </g>
  <g>
  </g>
</svg>
