<?xml version="1.0" encoding="iso-8859-1"?>
<!-- Generator: Adobe Illustrator 19.0.0, SVG Export Plug-In . SVG Version: 6.00 Build 0)  -->
<svg version="1.1" id="Capa_1" xmlns="http://www.w3.org/2000/svg" xmlns:xlink="http://www.w3.org/1999/xlink" x="0px" y="0px"
	 viewBox="0 0 512 512" style="enable-background:new 0 0 512 512;" xml:space="preserve">
<g>
	<g>
		<path d="M476.393,273.605l-56.011-83.299c-1.344-57.211-27.421-110.476-72.016-146.735C302.567,6.335,242.516-7.98,183.611,4.298
			c-74.032,15.43-133.93,75.615-149.05,149.763c-13.772,67.538,7.07,134.914,55.835,181.635v161.303
			c0,8.286,6.717,15.002,15.002,15.002h210.025c8.285,0,15.002-6.717,15.002-15.002v-76.009h52.206
			c20.846,0,37.805-16.959,37.805-37.805v-53.206h23.112C475.026,329.978,490.413,294.472,476.393,273.605z M443.549,299.974
			h-38.114c-8.285,0-15.002,6.717-15.002,15.002v68.208c0,4.302-3.499,7.801-7.801,7.801h-67.208
			c-8.285,0-15.002,6.717-15.002,15.002v76.009H120.401V329.145c0-4.268-1.817-8.333-4.997-11.178
			c-44.291-39.642-63.523-98.674-51.443-157.911C76.72,97.48,127.265,46.69,189.734,33.67
			c50.024-10.426,100.944,1.667,139.704,33.181c38.764,31.518,60.995,78.211,60.995,128.111c0,2.982,0.889,5.897,2.552,8.371
			l57.839,86.016C452.782,294.268,449.189,299.974,443.549,299.974z"/>
	</g>
</g>
<g>
	<g>
		<path d="M201.445,63.065c-60.601,15.811-85.637,89.312-48.753,139.605c8.436,11.502,12.714,22.931,12.714,33.968
			c0,5.454,0,43.154,0,48.336c0,24.816,20.189,45.005,45.005,45.005h30.004c24.816,0,45.005-20.189,45.005-45.005
			c0-5.193,0-42.827,0-48.266c0-10.966,4.364-22.535,12.968-34.387c11.145-15.349,17.036-33.456,17.036-52.363
			C315.423,91.467,260.449,47.67,201.445,63.065z M255.416,284.973c0,8.272-6.73,15.002-15.002,15.002h-30.004
			c-8.272,0-15.002-6.73-15.002-15.002v-15.002h60.007V284.973z M274.108,184.692c-12.404,17.084-18.692,34.584-18.692,52.015v3.26
			h-15.002v-64.044c8.959-5.196,15.002-14.886,15.002-25.967c0-16.544-13.46-30.004-30.004-30.004s-30.004,13.46-30.004,30.004
			c0,11.081,6.043,20.771,15.002,25.967v64.044h-15.002v-3.33c0-17.554-6.232-34.953-18.522-51.712
			c-24.78-33.788-7.442-82.505,32.132-92.829c40.055-10.447,76.401,19.088,76.401,57.861
			C285.42,162.49,281.508,174.501,274.108,184.692z"/>
	</g>
</g>
<g>
</g>
<g>
</g>
<g>
</g>
<g>
</g>
<g>
</g>
<g>
</g>
<g>
</g>
<g>
</g>
<g>
</g>
<g>
</g>
<g>
</g>
<g>
</g>
<g>
</g>
<g>
</g>
<g>
</g>
</svg>
