<?xml version="1.0"?>
<svg xmlns="http://www.w3.org/2000/svg" viewBox="0 0 64 64" width="512" height="512"><g id="Portfolio"><path d="M59,2H9A3,3,0,0,0,6,5V36H3a1,1,0,0,0-1,1V61a1,1,0,0,0,1,1H29a1,1,0,0,0,.937-.649L31.193,58H59a3,3,0,0,0,3-3V5A3,3,0,0,0,59,2ZM8,5A1,1,0,0,1,9,4H59a1,1,0,0,1,1,1v9H8ZM4,38h8.586l3.707,3.707A1,1,0,0,0,17,42H28v2H9a1,1,0,0,0-.937.649L4,55.485ZM28.307,60H4.443l5.25-14H33.557ZM60,55a1,1,0,0,1-1,1H31.943l3.994-10.649A1,1,0,0,0,35,44H30V41a1,1,0,0,0-1-1H17.414l-3.707-3.707A1,1,0,0,0,13,36H8V16H60Z"/><path d="M55,6H35a3,3,0,0,0,0,6H55a3,3,0,0,0,0-6Zm0,4H35a1,1,0,0,1,0-2H55a1,1,0,0,1,0,2Z"/><path d="M13,6a3,3,0,1,0,3,3A3,3,0,0,0,13,6Zm0,4a1,1,0,1,1,1-1A1,1,0,0,1,13,10Z"/><path d="M20,6a3,3,0,1,0,3,3A3,3,0,0,0,20,6Zm0,4a1,1,0,1,1,1-1A1,1,0,0,1,20,10Z"/><path d="M27,6a3,3,0,1,0,3,3A3,3,0,0,0,27,6Zm0,4a1,1,0,1,1,1-1A1,1,0,0,1,27,10Z"/><path d="M39,34H55a1,1,0,0,0,1-1V21a1,1,0,0,0-1-1H39a1,1,0,0,0-1,1V33A1,1,0,0,0,39,34Zm1-2V26H54v6ZM54,22v2H40V22Z"/><path d="M39,52H55a1,1,0,0,0,1-1V39a1,1,0,0,0-1-1H39a1,1,0,0,0-1,1V51A1,1,0,0,0,39,52Zm1-2V44H54v6ZM54,40v2H40V40Z"/><path d="M15,34H31a1,1,0,0,0,1-1V21a1,1,0,0,0-1-1H15a1,1,0,0,0-1,1V33A1,1,0,0,0,15,34Zm1-2V26H30v6ZM30,22v2H16V22Z"/></g></svg>
